<svg id="Layer_1" data-name="Layer 1" xmlns="http://www.w3.org/2000/svg" xmlns:xlink="http://www.w3.org/1999/xlink" viewBox="0 0 456.60 456.60">
	<path d="M242.85,187.91a21,21,0,0,0,1.08-3.29,116.77,116.77,0,0,1,14.57-41.4A69.07,69.07,0,0,1,273,125.61c3.58-3.08,6.53-6.84,10.36-9.66,5.63-4.13,11.54-7.32,18.9-5.89,1.73.34,2.64-.84,3.54-2A53.37,53.37,0,0,1,328.06,90.6a27.93,27.93,0,0,1,20.75-.82c2,.7,3.05-.19,4.4-1.13,10.6-7.33,22.34-10.34,34.93-7.58,4.72,1,8.39.37,12.85-1,15.84-4.88,31.5-4.46,45.62,5.41a10.15,10.15,0,0,0,9.61,1.71c8.91-2.34,17.52-.32,25.6,3.67A9.48,9.48,0,0,1,487.25,101c-.19,1.75.66,1.92,2,2.11,6.89,1,13.86,2.72,17.95,8.63C511.5,118,518,121,523.71,125.12c12.81,9.29,25.63,18.5,36.86,29.77,7.88,7.91,14.28,17,20.51,26.11a196.32,196.32,0,0,1,16.73,29.34c8.65,19.08,16.39,38.53,19.1,59.49a265.48,265.48,0,0,1,1.64,49.51c-1.23,21.1-5.58,41.54-12,61.64-5.86,18.35-14.68,35.17-25.27,51.16-6.68,10.08-13.29,20.18-21.63,29-7,7.49-15.44,13.25-23.72,19.15-13.41,9.56-27.16,18.63-42.42,25a202.92,202.92,0,0,1-32.67,10.46,4.56,4.56,0,0,1-5.07-1.55c-4.17-4.91-6.44-10.46-6.07-17,.1-1.74.77-3,2.53-3.42,16.45-3.62,29.18-13.81,42.17-23.63a259.91,259.91,0,0,0,21.9-18.81c9-8.56,15.16-19.23,21.16-29.94a108,108,0,0,0,11.78-32.1,16.25,16.25,0,0,0-.06-6.5c-1.69-8.17-3.48-16.27-6.51-24.12-4.11-10.63-7-21.62-6.82-33.19,0-.67.33-1.64-.53-1.93s-1.29.54-1.84,1c-4.58,3.58-9,7.61-14.24,10-4.41,2-6,4.83-6.53,9.39-1.05,8.89-4.66,17-9.41,24.48a14.2,14.2,0,0,1-8.3,5.85,4.87,4.87,0,0,1-5.46-2.23c-1.53-2.18-2.45-4.76-1.21-7.43a15.18,15.18,0,0,0,1.8-5.66c.29-6.14-4.93-10-10.79-7.89-6.09,2.16-9.46,8.19-8.54,15.36a17.71,17.71,0,0,1,.2,4.33c-.52,4.52-2,8.23-6.9,9.73a52.68,52.68,0,0,0-6.22,2.76c-3.25,1.49-6.11.55-8.53-1.69-3.08-2.86-5.15-6.26-5.13-10.72,0-7.9-.28-15.76,3-23.32,3.14-7.28,8.34-12.81,14.38-17.47,8.55-6.59,16.64-13.84,26.19-19,0-1-.78-1-1.28-1.26-6.22-3.57-8.37-8-7.64-15.19a54.14,54.14,0,0,1,4.81-17c7.29-16.1,16.79-30.58,30.87-41.63a61.67,61.67,0,0,1,6.66-4.24,6.91,6.91,0,0,1,6.13-.94c2.72.85,5.35-.72,7.39-2.62,1.48-1.39.55-3.9-1.61-4.85a8.5,8.5,0,0,0-7.13.39,71.57,71.57,0,0,0-22.69,16.63c-7.72,8.14-14.26,17-18.9,27.16-3.88,8.52-7.44,17.19-9,26.5a10.73,10.73,0,0,0-.25,3.52c.81,4.67-1.43,7-5.41,9.16-12.75,6.91-25.72,13.1-40.08,15.88a45.33,45.33,0,0,1-23.38-1.78c-1.87-.63-2.62-1.46-2.51-3.72.44-9.08.52-18.18-1.51-27.12-.93-4.1-2.75-7.69-6.71-9.78-2.68-1.41-5.16-1-6.23,1-1.21,2.28-.28,5,2.88,5.62,5.77,1.13,7.06,5.27,8,9.93a31.47,31.47,0,0,1-.09,13.52,125,125,0,0,1-10.88,29.86C384,349.72,378.7,359.08,372,367.58a68.23,68.23,0,0,1-7.33,7.29c-7.35,6.84-8,21.79-2,30.06a22.08,22.08,0,0,1,3.65,9,7.26,7.26,0,0,1-2,7c-3.23,3.33-6.58,6.21-11.55,6.52a9.07,9.07,0,0,1-7.05-2.18c-4.92-4.39-7.38-10.33-9.71-16.21-1.42-3.59-3.2-4.83-6.62-2.76a28.83,28.83,0,0,0-8.59,8.27c-3.88,5.53-5.92,11.38-2.73,18.12,1.48,3.13-.21,6.65-3.88,9.29-2.28,1.64-6.34,1-9.12-1.11-5.72-4.35-7-10.58-7.52-17.14A31.3,31.3,0,0,1,300,409c5-11.88,11.74-22.52,22.86-29.81,4.39-2.87,7.5-7.07,10.53-11.31,6.24-8.75,9.42-18.75,11.76-29.06.95-4.18.22-5.22-3.73-6.79a31.94,31.94,0,0,1-6.52-3.37c-2.5-1.74-3.79-1.54-5.18,1.21-3.52,6.91-8.2,13.08-12.42,19.53C311,359,303.34,367.6,296,376.37c-11.79,14.06-23.46,28.27-36.89,40.83-5.92,5.54-13.58,8.31-21.33,10.43a10.49,10.49,0,0,1-7.41-1.16,50.77,50.77,0,0,1-12.79-8.7,384.06,384.06,0,0,1-30.45-32.72c-5-6.07-7.8-13.31-11.07-20.28-7.08-15.09-9.49-31.41-12.09-47.66-3.71-23.1,0-45.62,5.62-68,2.94-11.73,6-23.47,10.75-34.6a155.85,155.85,0,0,1,21-35.56c1.52-1.94,3.71-3.21,5.78-4.52,4.92-3.11,9.83-6.24,14.84-9.18,4.58-2.69,9.52-1.84,13.91.07,3.17,1.38,3.58,5.27,4,8.52C240.49,178.56,241,183.24,242.85,187.91Zm-6.56,162.32A27.76,27.76,0,0,0,253.45,345c8.54-6.1,14.21-14.42,12.62-24.92-2.85-18.82-10.75-26.15-26.31-30-7.33-1.8-14.46-1.28-20.12,4.26-12.63,12.38-15.39,29.76-4.46,44.88A25.07,25.07,0,0,0,236.29,350.24Zm-2.65,42.48a7,7,0,0,0-1.81-4.22,2.12,2.12,0,0,0-2.45-.72,2,2,0,0,0-1.35,2.16,39.69,39.69,0,0,0,5.5,15.2c.35.58,1,1.24,1.81.62s.45-1.54,0-2.21a10.86,10.86,0,0,1-2.1-8.21C233.3,394.45,233.5,393.56,233.64,392.72Z" transform="translate(-162.46 -77.03)" fill="#552727"/>
	<path d="M414,521.92c-20.22.9-44.8-2.74-68.88-10.18-6.76-2.09-12.75-5.62-18.92-8.91-13.19-7-25.26-15.5-34.81-27.11A176.22,176.22,0,0,1,275.45,452a23.3,23.3,0,0,1-2.29-7.25c-.2-1-.29-2,.73-2.7a2.6,2.6,0,0,1,2.84,0,8.27,8.27,0,0,1,1.79,1.21c10.24,9.44,22.57,12.6,36,11.28a110.68,110.68,0,0,1,30.87,1.08c5.51,1,10.11,4.15,14.58,7.17a63.45,63.45,0,0,1,21.75,24.63,34.93,34.93,0,0,1,2.65,6.54c1.46,5.56,5.71,7.33,10.64,8.27,5.59,1.07,11.23.62,16.85.43a112.1,112.1,0,0,0,28.62-5.07c1.49-.45,2.89-.84,2.9,1.62,0,6.25,2.39,11.67,6.15,16.55.95,1.23,1.49,2.33-.68,2.54C438.87,519.23,429.13,522.31,414,521.92Z" transform="translate(-162.46 -77.03)" fill="#552727"/>
	<path d="M238.07,297.15c15.41-1,23.51,15.43,20.77,26.75-3.22,13.3-16.36,16.63-26,12A28.37,28.37,0,0,1,224.4,330c-5.59-5.87-6.48-12.77-3.81-20.19C223.46,301.79,230.19,297,238.07,297.15Z" transform="translate(-162.46 -77.03)" fill="#552727"/>
</svg>