<?xml version="1.0" encoding="UTF-8" standalone="no"?>
<!DOCTYPE svg PUBLIC "-//W3C//DTD SVG 1.1//EN"
 "http://www.w3.org/Graphics/SVG/1.1/DTD/svg11.dtd">
<!-- Generated by graphviz version 2.40.1 (20161225.0304)
 -->
<!-- Title: dependencies Pages: 1 -->
<svg width="1366pt" height="284pt"
 viewBox="0.00 0.00 1366.00 284.00" xmlns="http://www.w3.org/2000/svg" xmlns:xlink="http://www.w3.org/1999/xlink">
<g id="graph0" class="graph" transform="scale(1 1) rotate(0) translate(4 280)">
<title>dependencies</title>
<polygon fill="#ffffff" stroke="transparent" points="-4,4 -4,-280 1362,-280 1362,4 -4,4"/>
<text text-anchor="start" x="658.0091" y="-42.4" font-family="sans-serif" font-weight="bold" font-size="14.00" fill="#000000">Legend</text>
<polygon fill="#ffffb3" stroke="transparent" points="445,-10 445,-30 465,-30 465,-10 445,-10"/>
<text text-anchor="start" x="468.629" y="-15.4" font-family="sans-serif" font-size="14.00" fill="#000000"> &#160;Declarations</text>
<polygon fill="#8dd3c7" stroke="transparent" points="558,-10 558,-30 578,-30 578,-10 558,-10"/>
<text text-anchor="start" x="581.7251" y="-15.4" font-family="sans-serif" font-size="14.00" fill="#000000"> &#160;Module</text>
<polygon fill="#80b1d3" stroke="transparent" points="644,-10 644,-30 664,-30 664,-10 644,-10"/>
<text text-anchor="start" x="667.7812" y="-15.4" font-family="sans-serif" font-size="14.00" fill="#000000"> &#160;Bootstrap</text>
<polygon fill="#fdb462" stroke="transparent" points="741,-10 741,-30 761,-30 761,-10 741,-10"/>
<text text-anchor="start" x="764.6732" y="-15.4" font-family="sans-serif" font-size="14.00" fill="#000000"> &#160;Providers</text>
<polygon fill="#fb8072" stroke="transparent" points="837,-10 837,-30 857,-30 857,-10 837,-10"/>
<text text-anchor="start" x="860.7258" y="-15.4" font-family="sans-serif" font-size="14.00" fill="#000000"> &#160;Exports</text>
<g id="clust1" class="cluster">
<title>cluster_AppModule</title>
<polygon fill="none" stroke="#000000" stroke-dasharray="1,5" points="8,-70 8,-268 1350,-268 1350,-70 8,-70"/>
</g>
<g id="clust2" class="cluster">
<title>cluster_AppModule_declarations</title>
<polygon fill="none" stroke="#000000" points="168,-78 168,-130 1342,-130 1342,-78 168,-78"/>
</g>
<g id="clust11" class="cluster">
<title>cluster_AppModule_imports</title>
<polygon fill="none" stroke="#000000" points="16,-78 16,-130 160,-130 160,-78 16,-78"/>
</g>
<g id="clust13" class="cluster">
<title>cluster_AppModule_bootstrap</title>
<polygon fill="none" stroke="#000000" points="686,-208 686,-260 810,-260 810,-208 686,-208"/>
</g>
<!-- AboutComponent -->
<g id="node1" class="node">
<title>AboutComponent</title>
<polygon fill="#ffffb3" stroke="#000000" points="1334.3301,-122 1217.6699,-122 1217.6699,-86 1334.3301,-86 1334.3301,-122"/>
<text text-anchor="middle" x="1276" y="-99.8" font-family="Times,serif" font-size="14.00" fill="#000000">AboutComponent</text>
</g>
<!-- AppModule -->
<g id="node9" class="node">
<title>AppModule</title>
<polygon fill="#8dd3c7" stroke="#000000" points="789.6571,-187 786.6571,-191 765.6571,-191 762.6571,-187 706.3429,-187 706.3429,-151 789.6571,-151 789.6571,-187"/>
<text text-anchor="middle" x="748" y="-164.8" font-family="Times,serif" font-size="14.00" fill="#000000">AppModule</text>
</g>
<!-- AboutComponent&#45;&gt;AppModule -->
<g id="edge1" class="edge">
<title>AboutComponent&#45;&gt;AppModule</title>
<path fill="none" stroke="#000000" d="M1276,-122.0109C1276,-144.4852 1276,-180 1276,-180 1276,-180 799.8726,-180 799.8726,-180"/>
<polygon fill="#000000" stroke="#000000" points="799.8726,-176.5001 789.8726,-180 799.8726,-183.5001 799.8726,-176.5001"/>
</g>
<!-- AppComponent -->
<g id="node2" class="node">
<title>AppComponent</title>
<polygon fill="#ffffb3" stroke="#000000" points="1199.9399,-122 1094.0601,-122 1094.0601,-86 1199.9399,-86 1199.9399,-122"/>
<text text-anchor="middle" x="1147" y="-99.8" font-family="Times,serif" font-size="14.00" fill="#000000">AppComponent</text>
</g>
<!-- AppComponent&#45;&gt;AppModule -->
<g id="edge2" class="edge">
<title>AppComponent&#45;&gt;AppModule</title>
<path fill="none" stroke="#000000" d="M1147,-122.1289C1147,-142.5724 1147,-173 1147,-173 1147,-173 799.9459,-173 799.9459,-173"/>
<polygon fill="#000000" stroke="#000000" points="799.9459,-169.5001 789.9459,-173 799.9458,-176.5001 799.9459,-169.5001"/>
</g>
<!-- ContactComponent -->
<g id="node3" class="node">
<title>ContactComponent</title>
<polygon fill="#ffffb3" stroke="#000000" points="1076.3795,-122 951.6205,-122 951.6205,-86 1076.3795,-86 1076.3795,-122"/>
<text text-anchor="middle" x="1014" y="-99.8" font-family="Times,serif" font-size="14.00" fill="#000000">ContactComponent</text>
</g>
<!-- ContactComponent&#45;&gt;AppModule -->
<g id="edge3" class="edge">
<title>ContactComponent&#45;&gt;AppModule</title>
<path fill="none" stroke="#000000" d="M1014,-122.2667C1014,-140.5552 1014,-166 1014,-166 1014,-166 799.8551,-166 799.8551,-166"/>
<polygon fill="#000000" stroke="#000000" points="799.8552,-162.5001 789.8551,-166 799.8551,-169.5001 799.8552,-162.5001"/>
</g>
<!-- HomeComponent -->
<g id="node4" class="node">
<title>HomeComponent</title>
<polygon fill="#ffffb3" stroke="#000000" points="933.5451,-122 818.4549,-122 818.4549,-86 933.5451,-86 933.5451,-122"/>
<text text-anchor="middle" x="876" y="-99.8" font-family="Times,serif" font-size="14.00" fill="#000000">HomeComponent</text>
</g>
<!-- HomeComponent&#45;&gt;AppModule -->
<g id="edge4" class="edge">
<title>HomeComponent&#45;&gt;AppModule</title>
<path fill="none" stroke="#000000" d="M876,-122.0091C876,-138.0494 876,-159 876,-159 876,-159 799.912,-159 799.912,-159"/>
<polygon fill="#000000" stroke="#000000" points="799.912,-155.5001 789.912,-159 799.912,-162.5001 799.912,-155.5001"/>
</g>
<!-- NavComponent -->
<g id="node5" class="node">
<title>NavComponent</title>
<polygon fill="#ffffb3" stroke="#000000" points="800.1542,-122 695.8458,-122 695.8458,-86 800.1542,-86 800.1542,-122"/>
<text text-anchor="middle" x="748" y="-99.8" font-family="Times,serif" font-size="14.00" fill="#000000">NavComponent</text>
</g>
<!-- NavComponent&#45;&gt;AppModule -->
<g id="edge5" class="edge">
<title>NavComponent&#45;&gt;AppModule</title>
<path fill="none" stroke="#000000" d="M748,-122.1061C748,-122.1061 748,-140.991 748,-140.991"/>
<polygon fill="#000000" stroke="#000000" points="744.5001,-140.9909 748,-150.991 751.5001,-140.991 744.5001,-140.9909"/>
</g>
<!-- ProjectMenuComponent -->
<g id="node6" class="node">
<title>ProjectMenuComponent</title>
<polygon fill="#ffffb3" stroke="#000000" points="677.6456,-122 524.3544,-122 524.3544,-86 677.6456,-86 677.6456,-122"/>
<text text-anchor="middle" x="601" y="-99.8" font-family="Times,serif" font-size="14.00" fill="#000000">ProjectMenuComponent</text>
</g>
<!-- ProjectMenuComponent&#45;&gt;AppModule -->
<g id="edge6" class="edge">
<title>ProjectMenuComponent&#45;&gt;AppModule</title>
<path fill="none" stroke="#000000" d="M601,-122.0091C601,-138.0494 601,-159 601,-159 601,-159 696.2689,-159 696.2689,-159"/>
<polygon fill="#000000" stroke="#000000" points="696.2689,-162.5001 706.2689,-159 696.2689,-155.5001 696.2689,-162.5001"/>
</g>
<!-- ProjectsComponent -->
<g id="node7" class="node">
<title>ProjectsComponent</title>
<polygon fill="#ffffb3" stroke="#000000" points="506.4313,-122 379.5687,-122 379.5687,-86 506.4313,-86 506.4313,-122"/>
<text text-anchor="middle" x="443" y="-99.8" font-family="Times,serif" font-size="14.00" fill="#000000">ProjectsComponent</text>
</g>
<!-- ProjectsComponent&#45;&gt;AppModule -->
<g id="edge7" class="edge">
<title>ProjectsComponent&#45;&gt;AppModule</title>
<path fill="none" stroke="#000000" d="M443,-122.2667C443,-140.5552 443,-166 443,-166 443,-166 696.2306,-166 696.2306,-166"/>
<polygon fill="#000000" stroke="#000000" points="696.2306,-169.5001 706.2306,-166 696.2305,-162.5001 696.2306,-169.5001"/>
</g>
<!-- SelectedSubscreenComponent -->
<g id="node8" class="node">
<title>SelectedSubscreenComponent</title>
<polygon fill="#ffffb3" stroke="#000000" points="362.2864,-122 175.7136,-122 175.7136,-86 362.2864,-86 362.2864,-122"/>
<text text-anchor="middle" x="269" y="-99.8" font-family="Times,serif" font-size="14.00" fill="#000000">SelectedSubscreenComponent</text>
</g>
<!-- SelectedSubscreenComponent&#45;&gt;AppModule -->
<g id="edge8" class="edge">
<title>SelectedSubscreenComponent&#45;&gt;AppModule</title>
<path fill="none" stroke="#000000" d="M269,-122.1289C269,-142.5724 269,-173 269,-173 269,-173 696.3298,-173 696.3298,-173"/>
<polygon fill="#000000" stroke="#000000" points="696.3299,-176.5001 706.3298,-173 696.3298,-169.5001 696.3299,-176.5001"/>
</g>
<!-- AppComponent  -->
<g id="node11" class="node">
<title>AppComponent </title>
<polygon fill="#80b1d3" stroke="#000000" points="802.439,-252 693.561,-252 693.561,-216 802.439,-216 802.439,-252"/>
<text text-anchor="middle" x="748" y="-229.8" font-family="Times,serif" font-size="14.00" fill="#000000">AppComponent </text>
</g>
<!-- AppModule&#45;&gt;AppComponent  -->
<g id="edge10" class="edge">
<title>AppModule&#45;&gt;AppComponent </title>
<path fill="none" stroke="#000000" stroke-dasharray="1,5" d="M748,-187.1061C748,-187.1061 748,-205.991 748,-205.991"/>
<polygon fill="#000000" stroke="#000000" points="744.5001,-205.9909 748,-215.991 751.5001,-205.991 744.5001,-205.9909"/>
</g>
<!-- AppRoutingModule -->
<g id="node10" class="node">
<title>AppRoutingModule</title>
<polygon fill="#8dd3c7" stroke="#000000" points="152.2744,-122 149.2744,-126 128.2744,-126 125.2744,-122 23.7256,-122 23.7256,-86 152.2744,-86 152.2744,-122"/>
<text text-anchor="middle" x="88" y="-99.8" font-family="Times,serif" font-size="14.00" fill="#000000">AppRoutingModule</text>
</g>
<!-- AppRoutingModule&#45;&gt;AppModule -->
<g id="edge9" class="edge">
<title>AppRoutingModule&#45;&gt;AppModule</title>
<path fill="none" stroke="#000000" d="M88,-122.0109C88,-144.4852 88,-180 88,-180 88,-180 696.2133,-180 696.2133,-180"/>
<polygon fill="#000000" stroke="#000000" points="696.2134,-183.5001 706.2133,-180 696.2133,-176.5001 696.2134,-183.5001"/>
</g>
</g>
</svg>
