<?xml version="1.0" encoding="UTF-8" standalone="no"?>
<!DOCTYPE svg PUBLIC "-//W3C//DTD SVG 1.1//EN"
 "http://www.w3.org/Graphics/SVG/1.1/DTD/svg11.dtd">
<!-- Generated by graphviz version 2.40.1 (20161225.0304)
 -->
<!-- Title: dependencies Pages: 1 -->
<svg width="1655pt" height="284pt"
 viewBox="0.00 0.00 1655.00 284.00" xmlns="http://www.w3.org/2000/svg" xmlns:xlink="http://www.w3.org/1999/xlink">
<g id="graph0" class="graph" transform="scale(1 1) rotate(0) translate(4 280)">
<title>dependencies</title>
<polygon fill="#ffffff" stroke="transparent" points="-4,4 -4,-280 1651,-280 1651,4 -4,4"/>
<text text-anchor="start" x="802.5091" y="-42.4" font-family="sans-serif" font-weight="bold" font-size="14.00" fill="#000000">Legend</text>
<polygon fill="#ffffb3" stroke="transparent" points="589.5,-10 589.5,-30 609.5,-30 609.5,-10 589.5,-10"/>
<text text-anchor="start" x="613.129" y="-15.4" font-family="sans-serif" font-size="14.00" fill="#000000"> &#160;Declarations</text>
<polygon fill="#8dd3c7" stroke="transparent" points="702.5,-10 702.5,-30 722.5,-30 722.5,-10 702.5,-10"/>
<text text-anchor="start" x="726.2251" y="-15.4" font-family="sans-serif" font-size="14.00" fill="#000000"> &#160;Module</text>
<polygon fill="#80b1d3" stroke="transparent" points="788.5,-10 788.5,-30 808.5,-30 808.5,-10 788.5,-10"/>
<text text-anchor="start" x="812.2812" y="-15.4" font-family="sans-serif" font-size="14.00" fill="#000000"> &#160;Bootstrap</text>
<polygon fill="#fdb462" stroke="transparent" points="885.5,-10 885.5,-30 905.5,-30 905.5,-10 885.5,-10"/>
<text text-anchor="start" x="909.1732" y="-15.4" font-family="sans-serif" font-size="14.00" fill="#000000"> &#160;Providers</text>
<polygon fill="#fb8072" stroke="transparent" points="981.5,-10 981.5,-30 1001.5,-30 1001.5,-10 981.5,-10"/>
<text text-anchor="start" x="1005.2258" y="-15.4" font-family="sans-serif" font-size="14.00" fill="#000000"> &#160;Exports</text>
<g id="clust1" class="cluster">
<title>cluster_AppModule</title>
<polygon fill="none" stroke="#000000" stroke-dasharray="1,5" points="8,-70 8,-268 1639,-268 1639,-70 8,-70"/>
</g>
<g id="clust2" class="cluster">
<title>cluster_AppModule_declarations</title>
<polygon fill="none" stroke="#000000" points="456,-78 456,-130 1631,-130 1631,-78 456,-78"/>
</g>
<g id="clust11" class="cluster">
<title>cluster_AppModule_imports</title>
<polygon fill="none" stroke="#000000" points="16,-78 16,-130 448,-130 448,-78 16,-78"/>
</g>
<g id="clust13" class="cluster">
<title>cluster_AppModule_bootstrap</title>
<polygon fill="none" stroke="#000000" points="836,-208 836,-260 960,-260 960,-208 836,-208"/>
</g>
<!-- AppComponent -->
<g id="node1" class="node">
<title>AppComponent</title>
<polygon fill="#ffffb3" stroke="#000000" points="1622.9399,-122 1517.0601,-122 1517.0601,-86 1622.9399,-86 1622.9399,-122"/>
<text text-anchor="middle" x="1570" y="-99.8" font-family="Times,serif" font-size="14.00" fill="#000000">AppComponent</text>
</g>
<!-- AppModule -->
<g id="node9" class="node">
<title>AppModule</title>
<polygon fill="#8dd3c7" stroke="#000000" points="939.6571,-187 936.6571,-191 915.6571,-191 912.6571,-187 856.3429,-187 856.3429,-151 939.6571,-151 939.6571,-187"/>
<text text-anchor="middle" x="898" y="-164.8" font-family="Times,serif" font-size="14.00" fill="#000000">AppModule</text>
</g>
<!-- AppComponent&#45;&gt;AppModule -->
<g id="edge1" class="edge">
<title>AppComponent&#45;&gt;AppModule</title>
<path fill="none" stroke="#000000" d="M1570,-122.2479C1570,-145.0179 1570,-181 1570,-181 1570,-181 949.7827,-181 949.7827,-181"/>
<polygon fill="#000000" stroke="#000000" points="949.7827,-177.5001 939.7827,-181 949.7827,-184.5001 949.7827,-177.5001"/>
</g>
<!-- NavComponent -->
<g id="node2" class="node">
<title>NavComponent</title>
<polygon fill="#ffffb3" stroke="#000000" points="1499.1542,-122 1394.8458,-122 1394.8458,-86 1499.1542,-86 1499.1542,-122"/>
<text text-anchor="middle" x="1447" y="-99.8" font-family="Times,serif" font-size="14.00" fill="#000000">NavComponent</text>
</g>
<!-- NavComponent&#45;&gt;AppModule -->
<g id="edge2" class="edge">
<title>NavComponent&#45;&gt;AppModule</title>
<path fill="none" stroke="#000000" d="M1447,-122.2843C1447,-143.3211 1447,-175 1447,-175 1447,-175 949.7148,-175 949.7148,-175"/>
<polygon fill="#000000" stroke="#000000" points="949.7149,-171.5001 939.7148,-175 949.7148,-178.5001 949.7149,-171.5001"/>
</g>
<!-- AboutComponent -->
<g id="node3" class="node">
<title>AboutComponent</title>
<polygon fill="#ffffb3" stroke="#000000" points="1377.3301,-122 1260.6699,-122 1260.6699,-86 1377.3301,-86 1377.3301,-122"/>
<text text-anchor="middle" x="1319" y="-99.8" font-family="Times,serif" font-size="14.00" fill="#000000">AboutComponent</text>
</g>
<!-- AboutComponent&#45;&gt;AppModule -->
<g id="edge3" class="edge">
<title>AboutComponent&#45;&gt;AppModule</title>
<path fill="none" stroke="#000000" d="M1319,-122.1061C1319,-141.3391 1319,-169 1319,-169 1319,-169 949.9062,-169 949.9062,-169"/>
<polygon fill="#000000" stroke="#000000" points="949.9063,-165.5001 939.9062,-169 949.9062,-172.5001 949.9063,-165.5001"/>
</g>
<!-- ProjectsComponent -->
<g id="node4" class="node">
<title>ProjectsComponent</title>
<polygon fill="#ffffb3" stroke="#000000" points="1243.4313,-122 1116.5687,-122 1116.5687,-86 1243.4313,-86 1243.4313,-122"/>
<text text-anchor="middle" x="1180" y="-99.8" font-family="Times,serif" font-size="14.00" fill="#000000">ProjectsComponent</text>
</g>
<!-- ProjectsComponent&#45;&gt;AppModule -->
<g id="edge4" class="edge">
<title>ProjectsComponent&#45;&gt;AppModule</title>
<path fill="none" stroke="#000000" d="M1180,-122.0225C1180,-139.3734 1180,-163 1180,-163 1180,-163 949.9137,-163 949.9137,-163"/>
<polygon fill="#000000" stroke="#000000" points="949.9138,-159.5001 939.9137,-163 949.9137,-166.5001 949.9138,-159.5001"/>
</g>
<!-- ContactComponent -->
<g id="node5" class="node">
<title>ContactComponent</title>
<polygon fill="#ffffb3" stroke="#000000" points="1098.3795,-122 973.6205,-122 973.6205,-86 1098.3795,-86 1098.3795,-122"/>
<text text-anchor="middle" x="1036" y="-99.8" font-family="Times,serif" font-size="14.00" fill="#000000">ContactComponent</text>
</g>
<!-- ContactComponent&#45;&gt;AppModule -->
<g id="edge5" class="edge">
<title>ContactComponent&#45;&gt;AppModule</title>
<path fill="none" stroke="#000000" d="M1036,-122.2396C1036,-137.5706 1036,-157 1036,-157 1036,-157 949.779,-157 949.779,-157"/>
<polygon fill="#000000" stroke="#000000" points="949.7791,-153.5001 939.779,-157 949.779,-160.5001 949.7791,-153.5001"/>
</g>
<!-- HomeComponent -->
<g id="node6" class="node">
<title>HomeComponent</title>
<polygon fill="#ffffb3" stroke="#000000" points="955.5451,-122 840.4549,-122 840.4549,-86 955.5451,-86 955.5451,-122"/>
<text text-anchor="middle" x="898" y="-99.8" font-family="Times,serif" font-size="14.00" fill="#000000">HomeComponent</text>
</g>
<!-- HomeComponent&#45;&gt;AppModule -->
<g id="edge6" class="edge">
<title>HomeComponent&#45;&gt;AppModule</title>
<path fill="none" stroke="#000000" d="M898,-122.1061C898,-122.1061 898,-140.991 898,-140.991"/>
<polygon fill="#000000" stroke="#000000" points="894.5001,-140.9909 898,-150.991 901.5001,-140.991 894.5001,-140.9909"/>
</g>
<!-- SelectedSubscreenComponent -->
<g id="node7" class="node">
<title>SelectedSubscreenComponent</title>
<polygon fill="#ffffb3" stroke="#000000" points="822.2864,-122 635.7136,-122 635.7136,-86 822.2864,-86 822.2864,-122"/>
<text text-anchor="middle" x="729" y="-99.8" font-family="Times,serif" font-size="14.00" fill="#000000">SelectedSubscreenComponent</text>
</g>
<!-- SelectedSubscreenComponent&#45;&gt;AppModule -->
<g id="edge7" class="edge">
<title>SelectedSubscreenComponent&#45;&gt;AppModule</title>
<path fill="none" stroke="#000000" d="M729,-122.2396C729,-137.5706 729,-157 729,-157 729,-157 846.2247,-157 846.2247,-157"/>
<polygon fill="#000000" stroke="#000000" points="846.2247,-160.5001 856.2247,-157 846.2247,-153.5001 846.2247,-160.5001"/>
</g>
<!-- ProjectMenuComponent -->
<g id="node8" class="node">
<title>ProjectMenuComponent</title>
<polygon fill="#ffffb3" stroke="#000000" points="617.6456,-122 464.3544,-122 464.3544,-86 617.6456,-86 617.6456,-122"/>
<text text-anchor="middle" x="541" y="-99.8" font-family="Times,serif" font-size="14.00" fill="#000000">ProjectMenuComponent</text>
</g>
<!-- ProjectMenuComponent&#45;&gt;AppModule -->
<g id="edge8" class="edge">
<title>ProjectMenuComponent&#45;&gt;AppModule</title>
<path fill="none" stroke="#000000" d="M541,-122.0225C541,-139.3734 541,-163 541,-163 541,-163 845.9978,-163 845.9978,-163"/>
<polygon fill="#000000" stroke="#000000" points="845.9978,-166.5001 855.9978,-163 845.9977,-159.5001 845.9978,-166.5001"/>
</g>
<!-- AppComponent  -->
<g id="node13" class="node">
<title>AppComponent </title>
<polygon fill="#80b1d3" stroke="#000000" points="952.439,-252 843.561,-252 843.561,-216 952.439,-216 952.439,-252"/>
<text text-anchor="middle" x="898" y="-229.8" font-family="Times,serif" font-size="14.00" fill="#000000">AppComponent </text>
</g>
<!-- AppModule&#45;&gt;AppComponent  -->
<g id="edge12" class="edge">
<title>AppModule&#45;&gt;AppComponent </title>
<path fill="none" stroke="#000000" stroke-dasharray="1,5" d="M898,-187.1061C898,-187.1061 898,-205.991 898,-205.991"/>
<polygon fill="#000000" stroke="#000000" points="894.5001,-205.9909 898,-215.991 901.5001,-205.991 894.5001,-205.9909"/>
</g>
<!-- BrowserModule -->
<g id="node10" class="node">
<title>BrowserModule</title>
<polygon fill="#8dd3c7" stroke="#000000" points="440.4734,-122 437.4734,-126 416.4734,-126 413.4734,-122 333.5266,-122 333.5266,-86 440.4734,-86 440.4734,-122"/>
<text text-anchor="middle" x="387" y="-99.8" font-family="Times,serif" font-size="14.00" fill="#000000">BrowserModule</text>
</g>
<!-- BrowserModule&#45;&gt;AppModule -->
<g id="edge9" class="edge">
<title>BrowserModule&#45;&gt;AppModule</title>
<path fill="none" stroke="#000000" d="M387,-122.1061C387,-141.3391 387,-169 387,-169 387,-169 846.1827,-169 846.1827,-169"/>
<polygon fill="#000000" stroke="#000000" points="846.1828,-172.5001 856.1827,-169 846.1827,-165.5001 846.1828,-172.5001"/>
</g>
<!-- AppRoutingModule -->
<g id="node11" class="node">
<title>AppRoutingModule</title>
<polygon fill="#8dd3c7" stroke="#000000" points="315.2744,-122 312.2744,-126 291.2744,-126 288.2744,-122 186.7256,-122 186.7256,-86 315.2744,-86 315.2744,-122"/>
<text text-anchor="middle" x="251" y="-99.8" font-family="Times,serif" font-size="14.00" fill="#000000">AppRoutingModule</text>
</g>
<!-- AppRoutingModule&#45;&gt;AppModule -->
<g id="edge10" class="edge">
<title>AppRoutingModule&#45;&gt;AppModule</title>
<path fill="none" stroke="#000000" d="M251,-122.2843C251,-143.3211 251,-175 251,-175 251,-175 846.047,-175 846.047,-175"/>
<polygon fill="#000000" stroke="#000000" points="846.0471,-178.5001 856.047,-175 846.047,-171.5001 846.0471,-178.5001"/>
</g>
<!-- ReactiveFormsModule -->
<g id="node12" class="node">
<title>ReactiveFormsModule</title>
<polygon fill="#8dd3c7" stroke="#000000" points="168.3047,-122 165.3047,-126 144.3047,-126 141.3047,-122 23.6953,-122 23.6953,-86 168.3047,-86 168.3047,-122"/>
<text text-anchor="middle" x="96" y="-99.8" font-family="Times,serif" font-size="14.00" fill="#000000">ReactiveFormsModule</text>
</g>
<!-- ReactiveFormsModule&#45;&gt;AppModule -->
<g id="edge11" class="edge">
<title>ReactiveFormsModule&#45;&gt;AppModule</title>
<path fill="none" stroke="#000000" d="M96,-122.2479C96,-145.0179 96,-181 96,-181 96,-181 846.2904,-181 846.2904,-181"/>
<polygon fill="#000000" stroke="#000000" points="846.2904,-184.5001 856.2904,-181 846.2904,-177.5001 846.2904,-184.5001"/>
</g>
</g>
</svg>
