<?xml version="1.0" encoding="UTF-8" standalone="no"?>
<!DOCTYPE svg PUBLIC "-//W3C//DTD SVG 1.1//EN"
 "http://www.w3.org/Graphics/SVG/1.1/DTD/svg11.dtd">
<!-- Generated by graphviz version 2.40.1 (20161225.0304)
 -->
<!-- Title: dependencies Pages: 1 -->
<svg width="1514pt" height="284pt"
 viewBox="0.00 0.00 1514.00 284.00" xmlns="http://www.w3.org/2000/svg" xmlns:xlink="http://www.w3.org/1999/xlink">
<g id="graph0" class="graph" transform="scale(1 1) rotate(0) translate(4 280)">
<title>dependencies</title>
<polygon fill="#ffffff" stroke="transparent" points="-4,4 -4,-280 1510,-280 1510,4 -4,4"/>
<text text-anchor="start" x="732.0091" y="-42.4" font-family="sans-serif" font-weight="bold" font-size="14.00" fill="#000000">Legend</text>
<polygon fill="#ffffb3" stroke="transparent" points="519,-10 519,-30 539,-30 539,-10 519,-10"/>
<text text-anchor="start" x="542.629" y="-15.4" font-family="sans-serif" font-size="14.00" fill="#000000"> &#160;Declarations</text>
<polygon fill="#8dd3c7" stroke="transparent" points="632,-10 632,-30 652,-30 652,-10 632,-10"/>
<text text-anchor="start" x="655.7251" y="-15.4" font-family="sans-serif" font-size="14.00" fill="#000000"> &#160;Module</text>
<polygon fill="#80b1d3" stroke="transparent" points="718,-10 718,-30 738,-30 738,-10 718,-10"/>
<text text-anchor="start" x="741.7812" y="-15.4" font-family="sans-serif" font-size="14.00" fill="#000000"> &#160;Bootstrap</text>
<polygon fill="#fdb462" stroke="transparent" points="815,-10 815,-30 835,-30 835,-10 815,-10"/>
<text text-anchor="start" x="838.6732" y="-15.4" font-family="sans-serif" font-size="14.00" fill="#000000"> &#160;Providers</text>
<polygon fill="#fb8072" stroke="transparent" points="911,-10 911,-30 931,-30 931,-10 911,-10"/>
<text text-anchor="start" x="934.7258" y="-15.4" font-family="sans-serif" font-size="14.00" fill="#000000"> &#160;Exports</text>
<g id="clust1" class="cluster">
<title>cluster_AppModule</title>
<polygon fill="none" stroke="#000000" stroke-dasharray="1,5" points="8,-70 8,-268 1498,-268 1498,-70 8,-70"/>
</g>
<g id="clust2" class="cluster">
<title>cluster_AppModule_declarations</title>
<polygon fill="none" stroke="#000000" points="168,-78 168,-130 1490,-130 1490,-78 168,-78"/>
</g>
<g id="clust12" class="cluster">
<title>cluster_AppModule_imports</title>
<polygon fill="none" stroke="#000000" points="16,-78 16,-130 160,-130 160,-78 16,-78"/>
</g>
<g id="clust14" class="cluster">
<title>cluster_AppModule_bootstrap</title>
<polygon fill="none" stroke="#000000" points="753,-208 753,-260 877,-260 877,-208 753,-208"/>
</g>
<!-- AboutComponent -->
<g id="node1" class="node">
<title>AboutComponent</title>
<polygon fill="#ffffb3" stroke="#000000" points="1482.3301,-122 1365.6699,-122 1365.6699,-86 1482.3301,-86 1482.3301,-122"/>
<text text-anchor="middle" x="1424" y="-99.8" font-family="Times,serif" font-size="14.00" fill="#000000">AboutComponent</text>
</g>
<!-- AppModule -->
<g id="node10" class="node">
<title>AppModule</title>
<polygon fill="#8dd3c7" stroke="#000000" points="856.6571,-187 853.6571,-191 832.6571,-191 829.6571,-187 773.3429,-187 773.3429,-151 856.6571,-151 856.6571,-187"/>
<text text-anchor="middle" x="815" y="-164.8" font-family="Times,serif" font-size="14.00" fill="#000000">AppModule</text>
</g>
<!-- AboutComponent&#45;&gt;AppModule -->
<g id="edge1" class="edge">
<title>AboutComponent&#45;&gt;AppModule</title>
<path fill="none" stroke="#000000" d="M1424,-122.0109C1424,-144.4852 1424,-180 1424,-180 1424,-180 866.859,-180 866.859,-180"/>
<polygon fill="#000000" stroke="#000000" points="866.8591,-176.5001 856.859,-180 866.859,-183.5001 866.8591,-176.5001"/>
</g>
<!-- AppComponent -->
<g id="node2" class="node">
<title>AppComponent</title>
<polygon fill="#ffffb3" stroke="#000000" points="1347.9399,-122 1242.0601,-122 1242.0601,-86 1347.9399,-86 1347.9399,-122"/>
<text text-anchor="middle" x="1295" y="-99.8" font-family="Times,serif" font-size="14.00" fill="#000000">AppComponent</text>
</g>
<!-- AppComponent&#45;&gt;AppModule -->
<g id="edge2" class="edge">
<title>AppComponent&#45;&gt;AppModule</title>
<path fill="none" stroke="#000000" d="M1295,-122.1289C1295,-142.5724 1295,-173 1295,-173 1295,-173 866.7572,-173 866.7572,-173"/>
<polygon fill="#000000" stroke="#000000" points="866.7572,-169.5001 856.7572,-173 866.7571,-176.5001 866.7572,-169.5001"/>
</g>
<!-- ContactComponent -->
<g id="node3" class="node">
<title>ContactComponent</title>
<polygon fill="#ffffb3" stroke="#000000" points="1224.3795,-122 1099.6205,-122 1099.6205,-86 1224.3795,-86 1224.3795,-122"/>
<text text-anchor="middle" x="1162" y="-99.8" font-family="Times,serif" font-size="14.00" fill="#000000">ContactComponent</text>
</g>
<!-- ContactComponent&#45;&gt;AppModule -->
<g id="edge3" class="edge">
<title>ContactComponent&#45;&gt;AppModule</title>
<path fill="none" stroke="#000000" d="M1162,-122.2667C1162,-140.5552 1162,-166 1162,-166 1162,-166 866.8563,-166 866.8563,-166"/>
<polygon fill="#000000" stroke="#000000" points="866.8563,-162.5001 856.8563,-166 866.8563,-169.5001 866.8563,-162.5001"/>
</g>
<!-- HomeComponent -->
<g id="node4" class="node">
<title>HomeComponent</title>
<polygon fill="#ffffb3" stroke="#000000" points="1081.5451,-122 966.4549,-122 966.4549,-86 1081.5451,-86 1081.5451,-122"/>
<text text-anchor="middle" x="1024" y="-99.8" font-family="Times,serif" font-size="14.00" fill="#000000">HomeComponent</text>
</g>
<!-- HomeComponent&#45;&gt;AppModule -->
<g id="edge4" class="edge">
<title>HomeComponent&#45;&gt;AppModule</title>
<path fill="none" stroke="#000000" d="M1024,-122.0091C1024,-138.0494 1024,-159 1024,-159 1024,-159 866.792,-159 866.792,-159"/>
<polygon fill="#000000" stroke="#000000" points="866.792,-155.5001 856.792,-159 866.7919,-162.5001 866.792,-155.5001"/>
</g>
<!-- LinkListComponent -->
<g id="node5" class="node">
<title>LinkListComponent</title>
<polygon fill="#ffffb3" stroke="#000000" points="947.5548,-122 818.4452,-122 818.4452,-86 947.5548,-86 947.5548,-122"/>
<text text-anchor="middle" x="883" y="-99.8" font-family="Times,serif" font-size="14.00" fill="#000000">LinkListComponent</text>
</g>
<!-- LinkListComponent&#45;&gt;AppModule -->
<g id="edge5" class="edge">
<title>LinkListComponent&#45;&gt;AppModule</title>
<path fill="none" stroke="#000000" d="M837.5256,-122.1061C837.5256,-122.1061 837.5256,-140.991 837.5256,-140.991"/>
<polygon fill="#000000" stroke="#000000" points="834.0257,-140.9909 837.5256,-150.991 841.0257,-140.991 834.0257,-140.9909"/>
</g>
<!-- NavComponent -->
<g id="node6" class="node">
<title>NavComponent</title>
<polygon fill="#ffffb3" stroke="#000000" points="800.1542,-122 695.8458,-122 695.8458,-86 800.1542,-86 800.1542,-122"/>
<text text-anchor="middle" x="748" y="-99.8" font-family="Times,serif" font-size="14.00" fill="#000000">NavComponent</text>
</g>
<!-- NavComponent&#45;&gt;AppModule -->
<g id="edge6" class="edge">
<title>NavComponent&#45;&gt;AppModule</title>
<path fill="none" stroke="#000000" d="M786.7493,-122.1061C786.7493,-122.1061 786.7493,-140.991 786.7493,-140.991"/>
<polygon fill="#000000" stroke="#000000" points="783.2494,-140.9909 786.7493,-150.991 790.2494,-140.991 783.2494,-140.9909"/>
</g>
<!-- ProjectMenuComponent -->
<g id="node7" class="node">
<title>ProjectMenuComponent</title>
<polygon fill="#ffffb3" stroke="#000000" points="677.6456,-122 524.3544,-122 524.3544,-86 677.6456,-86 677.6456,-122"/>
<text text-anchor="middle" x="601" y="-99.8" font-family="Times,serif" font-size="14.00" fill="#000000">ProjectMenuComponent</text>
</g>
<!-- ProjectMenuComponent&#45;&gt;AppModule -->
<g id="edge7" class="edge">
<title>ProjectMenuComponent&#45;&gt;AppModule</title>
<path fill="none" stroke="#000000" d="M601,-122.0091C601,-138.0494 601,-159 601,-159 601,-159 763.2306,-159 763.2306,-159"/>
<polygon fill="#000000" stroke="#000000" points="763.2307,-162.5001 773.2306,-159 763.2306,-155.5001 763.2307,-162.5001"/>
</g>
<!-- ProjectsComponent -->
<g id="node8" class="node">
<title>ProjectsComponent</title>
<polygon fill="#ffffb3" stroke="#000000" points="506.4313,-122 379.5687,-122 379.5687,-86 506.4313,-86 506.4313,-122"/>
<text text-anchor="middle" x="443" y="-99.8" font-family="Times,serif" font-size="14.00" fill="#000000">ProjectsComponent</text>
</g>
<!-- ProjectsComponent&#45;&gt;AppModule -->
<g id="edge8" class="edge">
<title>ProjectsComponent&#45;&gt;AppModule</title>
<path fill="none" stroke="#000000" d="M443,-122.2667C443,-140.5552 443,-166 443,-166 443,-166 763.05,-166 763.05,-166"/>
<polygon fill="#000000" stroke="#000000" points="763.05,-169.5001 773.05,-166 763.05,-162.5001 763.05,-169.5001"/>
</g>
<!-- SelectedSubscreenComponent -->
<g id="node9" class="node">
<title>SelectedSubscreenComponent</title>
<polygon fill="#ffffb3" stroke="#000000" points="362.2864,-122 175.7136,-122 175.7136,-86 362.2864,-86 362.2864,-122"/>
<text text-anchor="middle" x="269" y="-99.8" font-family="Times,serif" font-size="14.00" fill="#000000">SelectedSubscreenComponent</text>
</g>
<!-- SelectedSubscreenComponent&#45;&gt;AppModule -->
<g id="edge9" class="edge">
<title>SelectedSubscreenComponent&#45;&gt;AppModule</title>
<path fill="none" stroke="#000000" d="M269,-122.1289C269,-142.5724 269,-173 269,-173 269,-173 763.0629,-173 763.0629,-173"/>
<polygon fill="#000000" stroke="#000000" points="763.0629,-176.5001 773.0629,-173 763.0629,-169.5001 763.0629,-176.5001"/>
</g>
<!-- AppComponent  -->
<g id="node12" class="node">
<title>AppComponent </title>
<polygon fill="#80b1d3" stroke="#000000" points="869.439,-252 760.561,-252 760.561,-216 869.439,-216 869.439,-252"/>
<text text-anchor="middle" x="815" y="-229.8" font-family="Times,serif" font-size="14.00" fill="#000000">AppComponent </text>
</g>
<!-- AppModule&#45;&gt;AppComponent  -->
<g id="edge11" class="edge">
<title>AppModule&#45;&gt;AppComponent </title>
<path fill="none" stroke="#000000" stroke-dasharray="1,5" d="M815,-187.1061C815,-187.1061 815,-205.991 815,-205.991"/>
<polygon fill="#000000" stroke="#000000" points="811.5001,-205.9909 815,-215.991 818.5001,-205.991 811.5001,-205.9909"/>
</g>
<!-- AppRoutingModule -->
<g id="node11" class="node">
<title>AppRoutingModule</title>
<polygon fill="#8dd3c7" stroke="#000000" points="152.2744,-122 149.2744,-126 128.2744,-126 125.2744,-122 23.7256,-122 23.7256,-86 152.2744,-86 152.2744,-122"/>
<text text-anchor="middle" x="88" y="-99.8" font-family="Times,serif" font-size="14.00" fill="#000000">AppRoutingModule</text>
</g>
<!-- AppRoutingModule&#45;&gt;AppModule -->
<g id="edge10" class="edge">
<title>AppRoutingModule&#45;&gt;AppModule</title>
<path fill="none" stroke="#000000" d="M88,-122.0109C88,-144.4852 88,-180 88,-180 88,-180 763.3022,-180 763.3022,-180"/>
<polygon fill="#000000" stroke="#000000" points="763.3022,-183.5001 773.3022,-180 763.3021,-176.5001 763.3022,-183.5001"/>
</g>
</g>
</svg>
