<?xml version="1.0" encoding="UTF-8" standalone="no"?>
<!DOCTYPE svg PUBLIC "-//W3C//DTD SVG 1.1//EN"
 "http://www.w3.org/Graphics/SVG/1.1/DTD/svg11.dtd">
<!-- Generated by graphviz version 2.40.1 (20161225.0304)
 -->
<!-- Title: dependencies Pages: 1 -->
<svg width="1999pt" height="290pt"
 viewBox="0.00 0.00 1999.00 290.00" xmlns="http://www.w3.org/2000/svg" xmlns:xlink="http://www.w3.org/1999/xlink">
<g id="graph0" class="graph" transform="scale(1 1) rotate(0) translate(4 286)">
<title>dependencies</title>
<polygon fill="#ffffff" stroke="transparent" points="-4,4 -4,-286 1995,-286 1995,4 -4,4"/>
<text text-anchor="start" x="974.5091" y="-42.4" font-family="sans-serif" font-weight="bold" font-size="14.00" fill="#000000">Legend</text>
<polygon fill="#ffffb3" stroke="transparent" points="761.5,-10 761.5,-30 781.5,-30 781.5,-10 761.5,-10"/>
<text text-anchor="start" x="785.129" y="-15.4" font-family="sans-serif" font-size="14.00" fill="#000000"> &#160;Declarations</text>
<polygon fill="#8dd3c7" stroke="transparent" points="874.5,-10 874.5,-30 894.5,-30 894.5,-10 874.5,-10"/>
<text text-anchor="start" x="898.2251" y="-15.4" font-family="sans-serif" font-size="14.00" fill="#000000"> &#160;Module</text>
<polygon fill="#80b1d3" stroke="transparent" points="960.5,-10 960.5,-30 980.5,-30 980.5,-10 960.5,-10"/>
<text text-anchor="start" x="984.2812" y="-15.4" font-family="sans-serif" font-size="14.00" fill="#000000"> &#160;Bootstrap</text>
<polygon fill="#fdb462" stroke="transparent" points="1057.5,-10 1057.5,-30 1077.5,-30 1077.5,-10 1057.5,-10"/>
<text text-anchor="start" x="1081.1732" y="-15.4" font-family="sans-serif" font-size="14.00" fill="#000000"> &#160;Providers</text>
<polygon fill="#fb8072" stroke="transparent" points="1153.5,-10 1153.5,-30 1173.5,-30 1173.5,-10 1153.5,-10"/>
<text text-anchor="start" x="1177.2258" y="-15.4" font-family="sans-serif" font-size="14.00" fill="#000000"> &#160;Exports</text>
<g id="clust1" class="cluster">
<title>cluster_AppModule</title>
<polygon fill="none" stroke="#000000" stroke-dasharray="1,5" points="8,-70 8,-274 1639,-274 1639,-70 8,-70"/>
</g>
<g id="clust2" class="cluster">
<title>cluster_AppModule_declarations</title>
<polygon fill="none" stroke="#000000" points="16,-78 16,-130 1191,-130 1191,-78 16,-78"/>
</g>
<g id="clust11" class="cluster">
<title>cluster_AppModule_imports</title>
<polygon fill="none" stroke="#000000" points="1199,-78 1199,-130 1631,-130 1631,-78 1199,-78"/>
</g>
<g id="clust13" class="cluster">
<title>cluster_AppModule_bootstrap</title>
<polygon fill="none" stroke="#000000" points="817,-214 817,-266 941,-266 941,-214 817,-214"/>
</g>
<g id="clust15" class="cluster">
<title>cluster_AppRoutingModule</title>
<polygon fill="none" stroke="#000000" stroke-dasharray="1,5" points="1647,-138 1647,-206 1983,-206 1983,-138 1647,-138"/>
</g>
<g id="clust17" class="cluster">
<title>cluster_AppRoutingModule_imports</title>
<polygon fill="none" stroke="#000000" points="1781,-146 1781,-198 1975,-198 1975,-146 1781,-146"/>
</g>
<g id="clust18" class="cluster">
<title>cluster_AppRoutingModule_exports</title>
<polygon fill="none" stroke="#000000" points="1655,-146 1655,-198 1773,-198 1773,-146 1655,-146"/>
</g>
<!-- AppComponent -->
<g id="node1" class="node">
<title>AppComponent</title>
<polygon fill="#ffffb3" stroke="#000000" points="1182.9399,-122 1077.0601,-122 1077.0601,-86 1182.9399,-86 1182.9399,-122"/>
<text text-anchor="middle" x="1130" y="-99.8" font-family="Times,serif" font-size="14.00" fill="#000000">AppComponent</text>
</g>
<!-- AppModule -->
<g id="node9" class="node">
<title>AppModule</title>
<polygon fill="#8dd3c7" stroke="#000000" points="920.6571,-190 917.6571,-194 896.6571,-194 893.6571,-190 837.3429,-190 837.3429,-154 920.6571,-154 920.6571,-190"/>
<text text-anchor="middle" x="879" y="-167.8" font-family="Times,serif" font-size="14.00" fill="#000000">AppModule</text>
</g>
<!-- AppComponent&#45;&gt;AppModule -->
<g id="edge1" class="edge">
<title>AppComponent&#45;&gt;AppModule</title>
<path fill="none" stroke="#000000" d="M1130,-122.2667C1130,-140.5552 1130,-166 1130,-166 1130,-166 930.7293,-166 930.7293,-166"/>
<polygon fill="#000000" stroke="#000000" points="930.7293,-162.5001 920.7293,-166 930.7293,-169.5001 930.7293,-162.5001"/>
</g>
<!-- NavComponent -->
<g id="node2" class="node">
<title>NavComponent</title>
<polygon fill="#ffffb3" stroke="#000000" points="1059.1542,-122 954.8458,-122 954.8458,-86 1059.1542,-86 1059.1542,-122"/>
<text text-anchor="middle" x="1007" y="-99.8" font-family="Times,serif" font-size="14.00" fill="#000000">NavComponent</text>
</g>
<!-- NavComponent&#45;&gt;AppModule -->
<g id="edge2" class="edge">
<title>NavComponent&#45;&gt;AppModule</title>
<path fill="none" stroke="#000000" d="M1007,-122.027C1007,-138.3976 1007,-160 1007,-160 1007,-160 930.912,-160 930.912,-160"/>
<polygon fill="#000000" stroke="#000000" points="930.912,-156.5001 920.912,-160 930.912,-163.5001 930.912,-156.5001"/>
</g>
<!-- AboutComponent -->
<g id="node3" class="node">
<title>AboutComponent</title>
<polygon fill="#ffffb3" stroke="#000000" points="937.3301,-122 820.6699,-122 820.6699,-86 937.3301,-86 937.3301,-122"/>
<text text-anchor="middle" x="879" y="-99.8" font-family="Times,serif" font-size="14.00" fill="#000000">AboutComponent</text>
</g>
<!-- AboutComponent&#45;&gt;AppModule -->
<g id="edge3" class="edge">
<title>AboutComponent&#45;&gt;AppModule</title>
<path fill="none" stroke="#000000" d="M879,-122.2228C879,-122.2228 879,-143.7269 879,-143.7269"/>
<polygon fill="#000000" stroke="#000000" points="875.5001,-143.7269 879,-153.7269 882.5001,-143.727 875.5001,-143.7269"/>
</g>
<!-- ProjectsComponent -->
<g id="node4" class="node">
<title>ProjectsComponent</title>
<polygon fill="#ffffb3" stroke="#000000" points="803.4313,-122 676.5687,-122 676.5687,-86 803.4313,-86 803.4313,-122"/>
<text text-anchor="middle" x="740" y="-99.8" font-family="Times,serif" font-size="14.00" fill="#000000">ProjectsComponent</text>
</g>
<!-- ProjectsComponent&#45;&gt;AppModule -->
<g id="edge4" class="edge">
<title>ProjectsComponent&#45;&gt;AppModule</title>
<path fill="none" stroke="#000000" d="M740,-122.027C740,-138.3976 740,-160 740,-160 740,-160 827.2954,-160 827.2954,-160"/>
<polygon fill="#000000" stroke="#000000" points="827.2955,-163.5001 837.2954,-160 827.2954,-156.5001 827.2955,-163.5001"/>
</g>
<!-- ContactComponent -->
<g id="node5" class="node">
<title>ContactComponent</title>
<polygon fill="#ffffb3" stroke="#000000" points="658.3795,-122 533.6205,-122 533.6205,-86 658.3795,-86 658.3795,-122"/>
<text text-anchor="middle" x="596" y="-99.8" font-family="Times,serif" font-size="14.00" fill="#000000">ContactComponent</text>
</g>
<!-- ContactComponent&#45;&gt;AppModule -->
<g id="edge5" class="edge">
<title>ContactComponent&#45;&gt;AppModule</title>
<path fill="none" stroke="#000000" d="M596,-122.2667C596,-140.5552 596,-166 596,-166 596,-166 827.2424,-166 827.2424,-166"/>
<polygon fill="#000000" stroke="#000000" points="827.2424,-169.5001 837.2424,-166 827.2423,-162.5001 827.2424,-169.5001"/>
</g>
<!-- HomeComponent -->
<g id="node6" class="node">
<title>HomeComponent</title>
<polygon fill="#ffffb3" stroke="#000000" points="515.5451,-122 400.4549,-122 400.4549,-86 515.5451,-86 515.5451,-122"/>
<text text-anchor="middle" x="458" y="-99.8" font-family="Times,serif" font-size="14.00" fill="#000000">HomeComponent</text>
</g>
<!-- HomeComponent&#45;&gt;AppModule -->
<g id="edge6" class="edge">
<title>HomeComponent&#45;&gt;AppModule</title>
<path fill="none" stroke="#000000" d="M458,-122.2228C458,-142.3652 458,-172 458,-172 458,-172 827.0938,-172 827.0938,-172"/>
<polygon fill="#000000" stroke="#000000" points="827.0938,-175.5001 837.0938,-172 827.0937,-168.5001 827.0938,-175.5001"/>
</g>
<!-- SelectedSubscreenComponent -->
<g id="node7" class="node">
<title>SelectedSubscreenComponent</title>
<polygon fill="#ffffb3" stroke="#000000" points="382.2864,-122 195.7136,-122 195.7136,-86 382.2864,-86 382.2864,-122"/>
<text text-anchor="middle" x="289" y="-99.8" font-family="Times,serif" font-size="14.00" fill="#000000">SelectedSubscreenComponent</text>
</g>
<!-- SelectedSubscreenComponent&#45;&gt;AppModule -->
<g id="edge7" class="edge">
<title>SelectedSubscreenComponent&#45;&gt;AppModule</title>
<path fill="none" stroke="#000000" d="M289,-122.2921C289,-144.2057 289,-178 289,-178 289,-178 827.0416,-178 827.0416,-178"/>
<polygon fill="#000000" stroke="#000000" points="827.0417,-181.5001 837.0416,-178 827.0416,-174.5001 827.0417,-181.5001"/>
</g>
<!-- ProjectMenuComponent -->
<g id="node8" class="node">
<title>ProjectMenuComponent</title>
<polygon fill="#ffffb3" stroke="#000000" points="177.6456,-122 24.3544,-122 24.3544,-86 177.6456,-86 177.6456,-122"/>
<text text-anchor="middle" x="101" y="-99.8" font-family="Times,serif" font-size="14.00" fill="#000000">ProjectMenuComponent</text>
</g>
<!-- ProjectMenuComponent&#45;&gt;AppModule -->
<g id="edge8" class="edge">
<title>ProjectMenuComponent&#45;&gt;AppModule</title>
<path fill="none" stroke="#000000" d="M101,-122.1532C101,-145.7566 101,-184 101,-184 101,-184 827.1713,-184 827.1713,-184"/>
<polygon fill="#000000" stroke="#000000" points="827.1714,-187.5001 837.1713,-184 827.1713,-180.5001 827.1714,-187.5001"/>
</g>
<!-- AppComponent  -->
<g id="node13" class="node">
<title>AppComponent </title>
<polygon fill="#80b1d3" stroke="#000000" points="933.439,-258 824.561,-258 824.561,-222 933.439,-222 933.439,-258"/>
<text text-anchor="middle" x="879" y="-235.8" font-family="Times,serif" font-size="14.00" fill="#000000">AppComponent </text>
</g>
<!-- AppModule&#45;&gt;AppComponent  -->
<g id="edge12" class="edge">
<title>AppModule&#45;&gt;AppComponent </title>
<path fill="none" stroke="#000000" stroke-dasharray="1,5" d="M879,-190.2228C879,-190.2228 879,-211.7269 879,-211.7269"/>
<polygon fill="#000000" stroke="#000000" points="875.5001,-211.7269 879,-221.7269 882.5001,-211.727 875.5001,-211.7269"/>
</g>
<!-- BrowserModule -->
<g id="node10" class="node">
<title>BrowserModule</title>
<polygon fill="#8dd3c7" stroke="#000000" points="1476.4734,-122 1473.4734,-126 1452.4734,-126 1449.4734,-122 1369.5266,-122 1369.5266,-86 1476.4734,-86 1476.4734,-122"/>
<text text-anchor="middle" x="1423" y="-99.8" font-family="Times,serif" font-size="14.00" fill="#000000">BrowserModule</text>
</g>
<!-- BrowserModule&#45;&gt;AppModule -->
<g id="edge9" class="edge">
<title>BrowserModule&#45;&gt;AppModule</title>
<path fill="none" stroke="#000000" d="M1423,-122.2921C1423,-144.2057 1423,-178 1423,-178 1423,-178 930.7835,-178 930.7835,-178"/>
<polygon fill="#000000" stroke="#000000" points="930.7835,-174.5001 920.7835,-178 930.7834,-181.5001 930.7835,-174.5001"/>
</g>
<!-- AppRoutingModule -->
<g id="node11" class="node">
<title>AppRoutingModule</title>
<polygon fill="#8dd3c7" stroke="#000000" points="1623.2744,-122 1620.2744,-126 1599.2744,-126 1596.2744,-122 1494.7256,-122 1494.7256,-86 1623.2744,-86 1623.2744,-122"/>
<text text-anchor="middle" x="1559" y="-99.8" font-family="Times,serif" font-size="14.00" fill="#000000">AppRoutingModule</text>
</g>
<!-- AppRoutingModule&#45;&gt;AppModule -->
<g id="edge10" class="edge">
<title>AppRoutingModule&#45;&gt;AppModule</title>
<path fill="none" stroke="#000000" d="M1559,-122.1532C1559,-145.7566 1559,-184 1559,-184 1559,-184 930.7683,-184 930.7683,-184"/>
<polygon fill="#000000" stroke="#000000" points="930.7683,-180.5001 920.7683,-184 930.7683,-187.5001 930.7683,-180.5001"/>
</g>
<!-- RouterModule  -->
<g id="node15" class="node">
<title>RouterModule </title>
<polygon fill="#fb8072" stroke="#000000" points="1764.6523,-190 1663.3477,-190 1663.3477,-154 1764.6523,-154 1764.6523,-190"/>
<text text-anchor="middle" x="1714" y="-167.8" font-family="Times,serif" font-size="14.00" fill="#000000">RouterModule </text>
</g>
<!-- AppRoutingModule&#45;&gt;RouterModule  -->
<g id="edge14" class="edge">
<title>AppRoutingModule&#45;&gt;RouterModule </title>
<path fill="none" stroke="#000000" stroke-dasharray="5,2" d="M1623.3874,-110C1665.9734,-110 1714,-110 1714,-110 1714,-110 1714,-143.7333 1714,-143.7333"/>
<polygon fill="#000000" stroke="#000000" points="1710.5001,-143.7333 1714,-153.7333 1717.5001,-143.7333 1710.5001,-143.7333"/>
</g>
<!-- ReactiveFormsModule -->
<g id="node12" class="node">
<title>ReactiveFormsModule</title>
<polygon fill="#8dd3c7" stroke="#000000" points="1351.3047,-122 1348.3047,-126 1327.3047,-126 1324.3047,-122 1206.6953,-122 1206.6953,-86 1351.3047,-86 1351.3047,-122"/>
<text text-anchor="middle" x="1279" y="-99.8" font-family="Times,serif" font-size="14.00" fill="#000000">ReactiveFormsModule</text>
</g>
<!-- ReactiveFormsModule&#45;&gt;AppModule -->
<g id="edge11" class="edge">
<title>ReactiveFormsModule&#45;&gt;AppModule</title>
<path fill="none" stroke="#000000" d="M1279,-122.2228C1279,-142.3652 1279,-172 1279,-172 1279,-172 930.675,-172 930.675,-172"/>
<polygon fill="#000000" stroke="#000000" points="930.6751,-168.5001 920.675,-172 930.675,-175.5001 930.6751,-168.5001"/>
</g>
<!-- RouterModule.forRoot(args) -->
<g id="node14" class="node">
<title>RouterModule.forRoot(args)</title>
<polygon fill="#8dd3c7" stroke="#000000" points="1966.8419,-190 1963.8419,-194 1942.8419,-194 1939.8419,-190 1789.1581,-190 1789.1581,-154 1966.8419,-154 1966.8419,-190"/>
<text text-anchor="middle" x="1878" y="-167.8" font-family="Times,serif" font-size="14.00" fill="#000000">RouterModule.forRoot(args)</text>
</g>
<!-- RouterModule.forRoot(args)&#45;&gt;AppRoutingModule -->
<g id="edge13" class="edge">
<title>RouterModule.forRoot(args)&#45;&gt;AppRoutingModule</title>
<path fill="none" stroke="#000000" d="M1878,-153.7079C1878,-131.7943 1878,-98 1878,-98 1878,-98 1633.5544,-98 1633.5544,-98"/>
<polygon fill="#000000" stroke="#000000" points="1633.5544,-94.5001 1623.5544,-98 1633.5544,-101.5001 1633.5544,-94.5001"/>
</g>
</g>
</svg>
